<svg xmlns="http://www.w3.org/2000/svg" width="499" height="37" viewBox="0 0 499 37" fill="none">
<g clip-path="url(#clip0_310_3)">
<path d="M27.065 1.35942C27.435 2.12669 27.4 2.46832 26.4154 3.96365C25.8793 4.78133 25.2676 5.6214 24.4927 6.20945C23.7207 6.7947 22.736 7.20354 21.7804 7.46116C20.8191 7.71879 19.7732 7.69358 18.5526 7.8112C18.5322 13.6077 18.5497 19.4518 18.5439 25.408C21.7105 25.4724 24.111 24.0666 26.3047 22.4061C26.9572 22.8653 26.5873 23.1874 26.4008 23.4702C23.7381 27.5025 19.9393 29.5327 14.9431 29.3927C13.1865 29.3423 11.4647 29.0455 9.86247 28.3174C6.1219 26.6177 3.78842 23.8482 3.33104 19.8523C2.80957 15.2935 4.16131 11.3675 7.99219 8.41605C8.20777 8.25083 8.46413 8.13042 8.67971 8.00161C9.30605 8.37684 8.96229 8.76048 8.81954 9.13291C8.3913 10.253 7.96306 11.3731 7.53481 12.4932C7.63095 12.5744 7.72417 12.6584 7.82031 12.7396C10.416 11.4963 13.0146 10.253 15.8025 8.91729V19.8999C14.0196 20.7791 12.1435 21.706 10.1625 22.6833C12.1435 24.7191 14.5411 25.3772 17.1601 25.5368C17.5242 24.5791 17.6262 9.33173 17.2766 7.48357C14.0167 7.01592 10.8209 6.01904 7.43868 6.01344C5.19259 6.01064 3.36891 6.7107 2.01135 8.46365C1.78121 8.76328 1.62972 9.28693 0.910156 9.0125C0.962594 8.78288 0.982987 8.52526 1.07621 8.29564C1.7346 6.67429 2.60856 5.18456 3.92534 3.95525C5.61209 2.38151 7.68339 1.79066 9.9353 2.00348C12.3911 2.2359 14.8149 2.73994 17.262 3.05357C18.7973 3.25239 20.3471 3.3924 21.8912 3.42881C23.7527 3.47361 25.4424 2.97516 26.7009 1.53024C26.7795 1.44063 26.9368 1.41263 27.0621 1.35382L27.065 1.35942ZM9.32353 21.6836C10.6656 21.3252 11.3375 20.5551 11.3395 19.3734C11.3395 17.416 11.3453 15.4587 11.3336 13.5013C11.3336 13.1569 11.2637 12.8124 11.2142 12.3476C10.6432 12.5968 10.2062 12.7732 9.7809 12.9749C7.14153 14.221 7.12988 14.2238 7.49403 17.08C7.70669 18.763 8.23981 20.3339 9.32062 21.6836H9.32353Z" fill="white"/>
<path d="M72.1094 23.3442C74.6002 17.4748 77.0298 11.7455 79.442 6.06102C79.3342 5.91821 79.2934 5.8006 79.2322 5.7866C76.7909 5.31335 74.3293 5.13694 71.8676 5.55138C71.2179 5.66059 70.5625 5.94341 70.006 6.29064C69.1029 6.85629 68.8408 7.76077 69.033 8.74926C69.2166 9.69014 69.7643 10.4406 70.7955 10.5638C71.6375 10.6646 72.5085 10.5414 73.365 10.4854C73.7087 10.463 74.0496 10.351 74.5274 10.5162C74.3759 10.7094 74.271 10.9839 74.07 11.0847C72.8144 11.7147 71.4743 11.8491 70.1168 11.5019C68.465 11.0791 67.5094 9.78255 67.5589 8.0296C67.6114 6.20663 68.3921 4.6917 69.8604 3.5324C71.5355 2.20788 73.4961 1.53862 75.6373 1.54982C77.9125 1.56382 80.1936 1.68983 82.4601 1.88305C84.779 2.08187 87.0833 2.4235 89.4168 2.06507C89.5421 2.04546 89.6848 2.13507 89.9033 2.19948C89.9033 2.55511 89.9237 2.91074 89.9004 3.26637C89.8159 4.56849 89.644 5.8678 89.6382 7.16712C89.6062 12.6696 89.6382 18.1721 89.6062 23.6718C89.6004 24.5175 89.813 25.1223 90.8181 25.4723C91.2434 25.1923 91.7474 24.8591 92.5077 24.3578C92.6942 24.5371 92.9098 24.7471 93.1982 25.0243C91.5202 26.514 90.0694 27.8049 88.5516 29.1519C87.1765 28.5414 86.0375 27.6817 84.9042 26.8249C82.2853 24.8451 82.294 24.8339 82.294 21.6108C82.294 20.4067 82.294 19.2026 82.294 17.8893H75.7538C75.0022 19.7038 74.2331 21.552 73.467 23.4058C74.5915 24.0582 75.6227 24.6519 76.6831 25.2679C77.0677 25.0131 77.461 24.7499 77.9125 24.4503C78.131 24.6407 78.3349 24.8171 78.6845 25.1167C77.1609 26.4804 75.6956 27.7909 74.1923 29.1351C73.7146 28.7766 73.3446 28.4882 72.963 28.2138C70.3819 26.3628 67.5473 26.6652 65.4818 29.0091C65.2429 29.2797 64.8477 29.4748 64.2961 29.5943C64.736 27.7573 65.5663 26.248 66.921 25.0103C68.3339 23.7194 70.0527 23.1957 72.1181 23.3358L72.1094 23.3442ZM82.2153 16.5676V6.18423C81.7026 6.11703 81.2482 6.05822 80.6801 5.98261C79.2672 9.53053 77.6999 12.9384 76.3598 16.5676H82.2153ZM83.5379 23.5878C84.6362 23.0893 84.9625 22.4145 84.9538 21.412C84.9101 16.856 84.9363 12.3 84.9305 7.74397C84.9305 7.37994 84.8897 7.01591 84.8605 6.55386C84.4265 6.48386 84.0274 6.41665 83.5379 6.33825V23.5878Z" fill="white"/>
<path d="M325.087 25.3912C326.937 25.8112 328.775 25.5508 330.477 24.9095C332.111 24.2963 333.608 23.347 335.345 22.4565C335.31 22.7925 335.365 23.1034 335.243 23.3246C334.479 24.7023 333.402 25.828 332.128 26.7913C326.5 31.0393 317.554 30.0088 313.184 24.5847C311.229 22.1597 310.477 19.3454 310.539 16.3296C310.652 10.5414 313.344 6.17306 318.512 3.21039C318.637 3.13759 318.757 3.05638 318.891 3.00318C319.258 2.85756 319.654 2.36472 320.001 2.88277C320.111 3.05078 319.843 3.53242 319.642 3.79565C318.981 4.65812 318.195 5.43659 317.597 6.33547C314.876 10.4182 314.448 14.7586 316.158 19.3034C316.313 19.7179 316.563 20.0987 316.825 20.6083C317.833 19.4098 317.959 18.1609 317.973 16.9092C318.005 14.3918 318.023 11.8716 317.964 9.35694C317.944 8.47206 318.25 7.90361 318.943 7.34076C321.052 5.62981 323.097 3.84605 325.218 2.04549C326.864 2.94717 328.519 3.70604 330.448 3.51562C332.388 3.3252 333.649 2.1491 334.73 0.68457C335.184 1.48824 334.934 2.33112 333.865 3.96926C331.814 7.11114 328.816 7.97082 325.09 7.18395V25.3912H325.087ZM323.666 25.254C323.738 25.0439 323.823 24.9151 323.823 24.7863C323.835 19.0094 323.835 13.2297 323.846 7.45277C323.846 6.5959 323.348 6.36628 322.442 6.35227C322.442 8.28445 322.39 10.141 322.454 11.9948C322.556 14.9658 321.463 17.4581 319.351 19.575C318.722 20.2079 318.075 20.824 317.382 21.5016C319.004 23.5654 321.058 24.8031 323.666 25.2512V25.254Z" fill="white"/>
<path d="M191.741 30.0592V6.24304C190.966 6.17584 190.17 6.06383 189.378 6.04983C188.51 6.03583 187.607 5.98542 186.776 6.18144C186.039 6.35785 185.387 6.8479 184.621 7.23993C184.993 4.09525 187.688 1.53863 190.301 1.82425C192.081 2.02027 193.876 2.10988 195.668 2.19108C196.911 2.24709 198.158 2.20229 199.495 2.20229C199.522 2.3815 199.592 2.59992 199.577 2.80994C199.455 4.6665 199.219 6.52307 199.204 8.37963C199.158 15.0918 199.172 21.8012 199.204 28.5134C199.207 29.3787 198.977 29.9892 198.269 30.5576C196.521 31.9605 194.84 33.4419 193.127 34.8868C192.842 35.1276 192.533 35.3404 192.256 35.5505C191.167 35.0996 190.179 34.5816 189.122 34.2875C187.971 33.9683 186.759 33.7331 185.564 33.6827C183.409 33.5903 181.573 34.3267 180.268 36.0629C180.128 36.2505 180.044 36.4773 179.936 36.6874L179.598 36.5137C179.531 36.2841 179.351 36.0237 179.409 35.8305C180.551 32.0921 183.715 29.8659 186.931 29.8071C188.469 29.7791 190.01 29.9612 191.738 30.0592H191.741ZM193.057 6.31585V30.7144C193.509 30.8992 193.934 31.0701 194.534 31.3165C194.534 30.6276 194.534 30.1208 194.534 29.6139C194.534 23.4618 194.502 17.3096 194.558 11.1603C194.569 9.77696 194.881 8.39364 195.067 7.01311C195.108 6.72189 195.207 6.43906 195.315 6.01622C194.467 6.12823 193.806 6.21784 193.054 6.31585H193.057Z" fill="white"/>
<path d="M27.843 26.2228C29.5327 25.2959 29.3754 24.0106 29.3725 22.7477C29.355 18.1301 29.3608 13.5125 29.3695 8.89489C29.3725 7.44716 29.422 5.99663 28.3936 4.61331C30.0571 3.49321 31.6302 2.38711 33.4277 1.32861C33.8413 2.67273 33.6141 3.82924 33.6549 4.96334C33.6957 6.17584 33.6636 7.38835 33.6636 8.60086C33.6636 9.76016 33.6636 10.9195 33.6636 12.3784C35.799 11.0455 37.5324 9.58655 39.458 8.31803C41.2496 9.53334 42.5548 10.9867 42.5664 13.1457C42.5897 16.968 42.5752 20.7903 42.4936 24.6127C42.4499 26.6345 41.5759 28.4126 40.297 29.9948C38.9103 31.7113 37.1624 33.0386 35.2309 34.1447C34.6716 34.464 34.6599 34.4472 34.0744 33.9403C34.1356 33.8311 34.1734 33.6855 34.2696 33.6043C37.1245 31.1177 38.2432 27.9198 38.3044 24.3299C38.3597 21.02 38.3219 17.7073 38.3219 14.3946C38.3219 13.3529 37.9402 12.4904 36.976 11.7819C35.8777 12.3168 34.9134 13.0869 33.9579 13.8485C33.751 14.0137 33.6753 14.4282 33.6753 14.7278C33.6549 17.8529 33.6753 20.978 33.652 24.103C33.6491 24.6687 33.8239 25.0803 34.2987 25.4164C34.6425 25.6628 34.9338 25.9792 35.3679 26.3712C34.2317 27.3261 33.1538 28.2306 31.9303 29.2583C30.6135 28.2782 29.3695 27.3513 27.8459 26.2172L27.843 26.2228Z" fill="white"/>
<path d="M365.823 8.31525C367.926 9.69577 369.048 11.4263 368.987 13.8737C368.905 17.1836 368.992 20.4963 368.949 23.809C368.937 24.7107 369.208 25.3296 370.14 25.7076C370.566 25.4304 370.994 25.1475 371.623 24.7359C371.786 24.9179 371.964 25.1167 372.241 25.4248C370.799 26.7129 369.467 27.903 368.095 29.1267C366.778 28.5386 365.832 27.6006 364.937 26.6457C364.672 26.36 364.701 25.7692 364.698 25.3156C364.681 21.7704 364.69 18.2253 364.687 14.6802C364.687 13.5181 364.456 12.4568 363.326 11.8044C363.198 11.8492 363.099 11.866 363.02 11.9164C361.047 13.1727 360.06 14.9556 360.06 17.2648C360.06 19.3174 360.107 21.37 360.04 23.4226C360.005 24.4363 360.203 25.2511 361.141 25.814C361.339 25.9316 361.476 26.1416 361.733 26.4021C360.617 27.3373 359.533 28.2446 358.438 29.1631C356.879 28.4322 355.705 27.4213 354.613 26.3797C354.656 26.1892 354.645 26.0632 354.703 26.0156C355.624 25.2483 355.813 24.2767 355.787 23.1398C355.72 20.2023 355.761 17.262 355.763 14.3246C355.763 13.4705 355.664 12.6528 354.901 11.9668C354.534 12.1684 354.173 12.37 353.774 12.5884C353.666 12.5324 353.529 12.4876 353.43 12.4036C353.083 12.1096 353.209 11.8408 353.5 11.5831C354.712 10.5134 355.918 9.43815 357.153 8.34325C358.819 9.23373 359.568 10.6507 360.031 12.4484C362.03 11.0231 363.926 9.67057 365.82 8.31805L365.823 8.31525Z" fill="white"/>
<path d="M432.305 12.006C431.793 11.9948 431.108 13.0505 430.726 11.7148C431.959 10.6143 433.229 9.48018 434.546 8.30408C436.468 9.51378 437.363 11.1687 437.377 13.2633C437.404 16.758 437.406 20.2527 437.371 23.7475C437.363 24.6239 437.543 25.3044 438.548 25.6824C438.936 25.436 439.37 25.1588 440.063 24.7135C440.238 24.8844 440.457 25.0972 440.73 25.3604C439.16 26.7493 437.814 27.9394 436.372 29.2163C435.326 28.3987 434.362 27.6454 433.313 26.8249C432.646 27.371 431.944 27.8694 431.344 28.4631C430.697 29.1015 430.068 29.1519 429.276 28.7459C427.95 28.0682 426.613 27.4102 425.241 26.8221C424.341 26.4357 424.119 25.8448 424.134 24.946C424.183 21.4512 424.151 17.9565 424.154 14.4618C424.154 13.5685 424.128 12.6865 423.304 11.9668C422.904 12.188 422.502 12.412 422.124 12.6221C421.524 12.258 421.518 11.9052 421.998 11.488C423.181 10.4575 424.352 9.41018 425.593 8.31248C427.239 9.25896 428.084 10.6507 428.338 12.3868C428.451 13.1653 428.431 13.9662 428.434 14.7587C428.445 17.3685 428.492 19.9783 428.41 22.5881C428.378 23.5962 428.757 24.1479 429.675 24.5007C430.735 24.9096 431.778 25.3632 432.975 25.8588C433.031 25.2568 433.089 24.8984 433.089 24.5399C433.095 21.1376 433.092 17.7353 433.092 14.333C433.092 13.4817 433.045 12.6473 432.305 12.0032V12.006Z" fill="white"/>
<path d="M236.246 25.8784C236.651 25.59 237.038 25.3156 237.484 24.9963C237.699 25.1644 237.906 25.3296 238.256 25.604C236.869 26.8529 235.541 28.0514 234.064 29.3815C233.044 28.5919 232.042 27.819 230.964 26.9845C230.011 27.7574 229.059 28.5303 227.996 29.3927C225.948 28.421 223.917 27.455 221.822 26.4609C221.822 25.8672 221.822 25.3604 221.822 24.8563C221.822 21.4064 221.82 17.9593 221.822 14.5094C221.822 13.6553 221.709 12.8517 221.013 12.1264C220.608 12.3392 220.243 12.5296 219.635 12.8517C219.518 12.7089 219.352 12.5072 219.087 12.1796C220.514 10.9027 221.846 9.71259 223.221 8.48328C224.759 9.35976 225.639 10.5835 225.921 12.1684C226.076 13.0365 226.111 13.9298 226.119 14.8118C226.143 17.4693 226.184 20.1267 226.099 22.7813C226.067 23.8006 226.463 24.3243 227.378 24.6743C228.438 25.0803 229.475 25.5396 230.676 26.0408C230.719 25.4108 230.775 25.0075 230.775 24.6043C230.781 21.342 230.781 18.0797 230.775 14.8174C230.775 13.885 230.751 12.9553 230.046 12.2216C229.473 12.0984 228.759 13.1989 228.377 11.88C229.601 10.7851 230.871 9.64818 232.202 8.46088C233.784 9.42976 234.67 10.7459 234.923 12.4428C235.031 13.1765 235.016 13.9298 235.019 14.6746C235.028 17.7521 235.048 20.8268 235.008 23.9042C234.996 24.7891 235.217 25.45 236.24 25.8812L236.246 25.8784Z" fill="white"/>
<path d="M140.357 26.3685C139.192 27.3429 138.14 28.225 137.025 29.1603C135.527 28.4574 134.342 27.4578 133.243 26.4133C133.258 26.248 133.229 26.1192 133.278 26.0744C134.266 25.2148 134.403 24.1283 134.374 22.9102C134.307 20.1155 134.362 17.3153 134.344 14.5178C134.339 13.6357 134.353 12.7312 133.523 11.9808C133.135 12.1796 132.73 12.3896 132.334 12.594C131.591 12.2104 131.775 11.8324 132.261 11.4095C133.412 10.4098 134.548 9.39615 135.737 8.34886C137.409 9.17213 138.108 10.6115 138.633 12.4316C140.611 11.0231 142.487 9.68738 144.407 8.31805C146.364 9.60057 147.579 11.1995 147.57 13.5209C147.559 16.9232 147.594 20.3283 147.565 23.7306C147.559 24.5903 147.661 25.3156 148.742 25.674C149.091 25.45 149.525 25.1756 150.248 24.7135C150.396 24.8955 150.586 25.1307 150.83 25.4304C149.347 26.7465 148.002 27.9394 146.536 29.2387C145.522 28.3902 144.529 27.651 143.673 26.7857C143.364 26.4749 143.276 25.8616 143.273 25.3856C143.241 21.7957 143.241 18.2057 143.265 14.6158C143.273 13.4761 142.968 12.5128 141.898 11.6952C140.949 12.37 139.961 13.0253 139.041 13.7589C138.79 13.9578 138.621 14.3862 138.618 14.7138C138.586 17.8837 138.583 21.0536 138.624 24.2235C138.63 24.5819 138.915 24.9767 139.166 25.282C139.46 25.6404 139.859 25.9232 140.351 26.3629L140.357 26.3685Z" fill="white"/>
<path d="M269.789 25.7076C270.197 25.408 270.575 25.128 271.173 24.6911C271.336 24.9095 271.496 25.1224 271.752 25.4668C270.368 26.7045 269.04 27.8946 267.648 29.1407C266.383 28.5135 265.399 27.623 264.522 26.6513C264.257 26.3573 264.274 25.7748 264.271 25.3268C264.254 21.7817 264.257 18.2394 264.262 14.6942C264.262 13.5321 264.018 12.4848 262.826 11.7344C261.926 12.3728 261.002 12.9665 260.161 13.6553C259.875 13.8878 259.651 14.3526 259.645 14.711C259.604 17.8809 259.607 21.0536 259.645 24.2235C259.651 24.5875 259.907 24.9908 260.152 25.2988C260.44 25.66 260.845 25.9344 261.34 26.3713C260.204 27.3234 259.129 28.225 258.028 29.1519C256.475 28.4547 255.307 27.4354 254.2 26.4021C254.223 26.2313 254.2 26.0997 254.253 26.0576C255.319 25.2316 255.38 24.1171 255.357 22.913C255.304 20.0707 255.336 17.2257 255.342 14.3806C255.342 13.5237 255.252 12.7033 254.591 12.0564C253.982 11.8296 253.411 13.2605 252.717 11.9304C254.014 10.7655 255.348 9.56978 256.717 8.34047C258.392 9.21135 259.132 10.6227 259.613 12.4232C261.591 11.0231 263.487 9.67899 265.401 8.32367C267.385 9.60338 268.559 11.2387 268.548 13.5657C268.527 16.9708 268.568 20.3731 268.539 23.7782C268.53 24.6603 268.731 25.3324 269.8 25.7132L269.789 25.7076Z" fill="white"/>
<path d="M494.695 29.2583C493.673 28.4042 492.702 27.7042 491.895 26.8585C491.56 26.5085 491.464 25.8476 491.461 25.3268C491.426 21.7844 491.45 18.2421 491.438 14.697C491.432 13.1821 491.185 12.7116 489.961 11.7568C489.096 12.3672 488.175 12.9609 487.333 13.6469C487.048 13.8793 486.818 14.3414 486.812 14.7026C486.771 17.8725 486.768 21.0424 486.818 24.2123C486.824 24.6099 487.153 25.0355 487.421 25.3856C487.671 25.716 488.041 25.9624 488.499 26.3713C487.371 27.3177 486.299 28.2194 485.198 29.1435C483.642 28.4434 482.468 27.4381 481.37 26.3993C481.393 26.2228 481.37 26.0912 481.42 26.0492C482.413 25.254 482.553 24.2235 482.524 23.0418C482.454 20.1519 482.497 17.262 482.503 14.3722C482.503 13.5153 482.396 12.7004 481.784 12.062C481.14 11.8212 480.572 13.2717 479.89 11.9192C481.181 10.7543 482.512 9.55296 483.826 8.36845C485.393 9.18892 485.938 9.91139 486.821 12.412C488.758 11.0287 490.643 9.68177 492.554 8.31525C494.581 9.60336 495.741 11.2919 495.726 13.6609C495.706 17.0632 495.744 20.4683 495.712 23.8706C495.703 24.7135 495.948 25.3184 496.883 25.6852C497.265 25.4388 497.696 25.1587 498.197 24.8311C498.38 24.9935 498.581 25.1699 498.913 25.4584C497.535 26.6961 496.21 27.889 494.695 29.2527V29.2583Z" fill="white"/>
<path d="M337.448 11.7288C339.435 10.6339 341.489 9.49977 343.671 8.29846C345.914 9.31215 348.23 10.3566 350.601 11.4263V25.6992C348.789 26.7297 346.893 27.8386 344.952 28.8747C344.641 29.0427 344.084 29.0091 343.738 28.8607C341.658 27.973 339.61 27.0237 337.451 26.052V11.7288H337.448ZM346.039 25.9148C346.173 25.7188 346.22 25.6824 346.22 25.646C346.249 21.8293 346.284 18.0153 346.281 14.1986C346.281 13.9242 346.08 13.5181 345.85 13.3977C344.588 12.7453 343.286 12.16 342.033 11.5692C341.888 11.7736 341.838 11.81 341.838 11.8464C341.803 15.6603 341.765 19.4743 341.762 23.2882C341.762 23.557 341.981 23.9519 342.217 24.0751C343.478 24.7303 344.781 25.3156 346.042 25.9148H346.039Z" fill="white"/>
<path d="M216.969 11.4263V25.6852C215.108 26.7409 213.211 27.8554 211.265 28.8775C210.927 29.0539 210.315 28.9615 209.922 28.7935C207.889 27.9282 205.887 26.9985 203.769 26.0436V11.7595C205.602 10.7262 207.507 9.63135 209.444 8.58966C209.724 8.43844 210.207 8.43284 210.505 8.55886C212.625 9.46614 214.72 10.4238 216.969 11.4291V11.4263ZM212.698 26.066C212.698 21.8544 212.704 18.0013 212.681 14.151C212.681 13.9157 212.494 13.5881 212.288 13.4677C211.023 12.7144 209.677 12.1208 208.16 11.5383V23.9378C209.57 24.5987 210.985 25.2651 212.695 26.0688L212.698 26.066Z" fill="white"/>
<path d="M464.188 11.726C466.16 10.6367 468.214 9.50256 470.402 8.29565C472.645 9.30654 474.961 10.3482 477.355 11.4263V25.6936C475.546 26.7157 473.641 27.8218 471.698 28.8579C471.383 29.0259 470.83 29.0091 470.486 28.8635C468.403 27.9758 466.352 27.0265 464.188 26.052V11.7232V11.726ZM468.747 11.5635C468.59 11.8016 468.499 11.8772 468.499 11.95C468.482 15.7135 468.461 19.4798 468.476 23.2434C468.476 23.515 468.668 23.907 468.898 24.0387C470.16 24.7639 471.477 25.3912 472.997 25.9092C473.029 25.31 473.07 24.9011 473.07 24.4923C473.076 21.2384 473.076 17.9845 473.07 14.7306C473.07 14.2294 473.184 13.6721 472.575 13.3809C471.293 12.7677 470.008 12.1628 468.744 11.5635H468.747Z" fill="white"/>
<path d="M177.926 25.7048C178.357 25.4052 178.748 25.1364 179.357 24.7135C179.514 24.9095 179.683 25.1196 179.945 25.4444C178.532 26.7073 177.204 27.8946 175.834 29.1183C174.591 28.6115 173.813 27.6174 172.665 26.8305C171.974 27.3906 171.22 27.945 170.535 28.5751C170.017 29.0539 169.469 29.2191 168.825 28.9503C167.855 28.5415 166.862 28.1578 165.953 27.637C164.814 26.9845 164.094 25.9232 163.969 24.6771C163.832 23.3442 163.951 21.9861 163.981 20.6392C163.995 20.0315 164.485 19.7879 164.971 19.5499C166.917 18.6034 168.869 17.6681 170.795 16.6824C171.363 16.3912 172.219 16.0131 172.298 15.5707C172.449 14.7026 172.26 13.7309 171.989 12.8629C171.826 12.342 171.246 11.9388 170.795 11.4151C169.187 12.9497 167.471 13.9942 165.102 14.1202C165.455 12.7621 165.778 11.5243 166.081 10.3706C167.474 10.2726 168.802 10.365 170.017 10.043C171.249 9.71819 172.365 8.98452 173.618 8.39087C175.654 9.43256 176.717 11.1211 176.72 13.4257C176.726 16.9204 176.749 20.4179 176.711 23.9126C176.703 24.7695 176.974 25.3436 177.926 25.6964V25.7048ZM168.228 19.365C168.228 20.1155 168.228 20.8548 168.228 21.5968C168.231 24.1815 169.492 25.4892 172.318 25.758V17.3349C170.876 18.0517 169.609 18.679 168.228 19.3678V19.365Z" fill="white"/>
<path d="M129.503 25.6964C129.899 25.436 130.33 25.1504 130.945 24.7415C131.125 24.9291 131.312 25.1224 131.597 25.4192C130.126 26.7241 128.792 27.9114 127.329 29.2107C126.304 28.4267 125.334 27.6846 124.244 26.8501C123.539 27.4186 122.773 27.973 122.091 28.6087C121.564 29.1015 121.011 29.1967 120.376 28.9503C119.569 28.6367 118.747 28.3398 117.993 27.9366C115.977 26.8613 115.347 25.0552 115.376 22.9802C115.417 20.1015 115.438 20.1015 118.138 18.777C119.735 17.9957 121.302 17.1473 122.942 16.4584C123.88 16.0636 124.064 15.5035 124.052 14.6158C124.035 13.2857 123.481 12.314 122.336 11.5244C120.763 12.9385 119.07 14.025 116.705 14.1258C117.057 12.7649 117.381 11.5272 117.745 10.127C120.579 10.8971 122.904 9.833 125.063 8.32367C127.251 9.47177 128.317 11.1547 128.317 13.4649C128.314 16.912 128.34 20.3619 128.302 23.809C128.294 24.6939 128.503 25.3492 129.5 25.6992L129.503 25.6964ZM123.95 26.0184V17.5533C123.726 17.5645 123.566 17.5309 123.452 17.5841C122.284 18.1441 121.124 18.7154 119.857 19.337C119.857 20.4039 119.825 21.4708 119.866 22.5349C119.909 23.6466 120.518 24.4951 121.485 25.0356C122.179 25.422 122.974 25.6404 123.95 26.0212V26.0184Z" fill="white"/>
<path d="M280.358 11.3843C278.735 12.9805 277.019 13.9494 274.66 14.1566C275.009 12.7789 275.33 11.5103 275.697 10.0598C278.584 10.9755 280.871 9.76579 283.02 8.32086C285.281 9.51377 286.289 11.2639 286.263 13.6357C286.228 17.038 286.277 20.4431 286.24 23.8454C286.231 24.6827 286.449 25.2988 287.384 25.6964C287.789 25.4472 288.261 25.1588 288.8 24.8283C289.001 25.0355 289.185 25.2316 289.444 25.5004C288.057 26.7325 286.717 27.9198 285.246 29.2275C284.224 28.421 283.262 27.665 282.202 26.8305C281.529 27.3766 280.786 27.8946 280.157 28.5163C279.557 29.1127 278.924 29.2107 278.19 28.9027C277.308 28.5303 276.407 28.1746 275.58 27.7042C274.441 27.0545 273.666 26.0296 273.535 24.7835C273.389 23.4058 273.509 22.0001 273.541 20.6084C273.553 20.0763 273.966 19.8243 274.424 19.6031C276.416 18.6398 278.406 17.6737 280.378 16.674C280.914 16.4024 281.75 16.0748 281.82 15.6715C281.972 14.795 281.829 13.8262 281.584 12.9525C281.436 12.4232 280.868 12.0032 280.364 11.3843H280.358ZM277.762 19.3678C277.762 20.2751 277.75 21.1096 277.762 21.9441C277.803 24.2459 279.318 25.6516 281.797 25.6964C282.059 24.0807 281.992 18.5726 281.654 17.4301C280.396 18.0573 279.163 18.6678 277.759 19.3678H277.762Z" fill="white"/>
<path d="M380.185 18.8638C379.058 19.6647 377.901 20.4851 376.727 21.3196C374.554 20.3227 373.313 18.7966 373.217 16.5172C373.167 15.3075 373.179 14.0922 373.219 12.8825C373.231 12.5436 373.342 12.1068 373.581 11.8912C374.959 10.6535 376.386 9.46895 377.703 8.34605C379.18 8.8305 380.482 9.33454 381.828 9.68457C383.32 10.071 384.499 9.21133 385.717 8.34045C385.682 9.81619 384.147 11.8408 382.708 12.482C380.983 13.2521 379.308 12.5968 377.414 12.1488C377.618 14.3302 376.806 16.5368 378.909 18.3009C379.926 17.5645 380.91 16.9008 381.831 16.1643C382.428 15.6883 382.915 15.7247 383.512 16.1447C385.108 17.2676 385.936 18.7938 386.064 20.6531C386.145 21.8601 386.131 23.0782 386.075 24.2851C386.058 24.6575 385.872 25.1139 385.595 25.366C384.435 26.4245 383.206 27.4102 382.023 28.4462C381.601 28.8159 381.222 28.7879 380.709 28.6003C379.675 28.2222 378.618 27.8442 377.534 27.6594C376.156 27.427 374.833 27.7042 373.718 28.6171C373.517 28.7823 373.26 28.8887 372.992 29.0427C372.753 27.595 374.233 25.5536 376.025 24.6463C377.866 23.7138 379.698 24.1703 381.519 24.6743C382.265 22.2381 381.802 20.1519 380.176 18.8582L380.185 18.8638Z" fill="white"/>
<path d="M46.4264 11.7484C48.6259 10.6283 50.8836 9.48015 53.22 8.29285C55.0845 10.3034 56.9489 12.314 58.8891 14.4058C58.6036 14.6466 58.3444 14.907 58.0443 15.1059C55.9322 16.5116 53.8289 17.9341 51.6818 19.2866C50.9477 19.7487 50.601 20.2639 50.6826 21.1124C50.7816 22.1233 50.4816 23.305 50.939 24.1087C51.3672 24.8591 52.5529 25.2148 53.4094 25.7384C53.5696 25.8364 53.7473 25.912 54.0386 26.0576C55.0379 25.2316 56.0546 24.3887 57.1354 23.4954C57.383 23.7166 57.6073 23.9182 57.919 24.1983C56.1391 25.7608 54.4173 27.2561 52.716 28.7739C52.3257 29.1211 51.944 29.1183 51.5274 28.8943C50.0475 28.099 48.5822 27.2785 47.0906 26.5029C46.3885 26.1388 46.4264 25.5508 46.4264 24.9403C46.4322 21.4904 46.4264 18.0405 46.4264 14.5906C46.4264 13.6665 46.4264 12.7396 46.4264 11.754V11.7484ZM51.0642 11.9276L50.7991 12.0508V18.3429C52.2353 17.3909 53.5113 16.6432 54.7436 15.6743C53.4385 14.3442 52.2499 13.1373 51.0642 11.9276Z" fill="white"/>
<path d="M112.239 25.7104C112.714 25.4024 113.148 25.1224 113.626 24.8115C113.832 25.0607 113.998 25.268 114.223 25.5396C112.868 26.7437 111.557 27.9058 110.118 29.1827C108.728 28.281 107.496 27.2589 106.468 26.0408C106.211 25.7384 106.249 25.1616 106.249 24.7107C106.235 19.4042 106.229 14.095 106.249 8.78849C106.255 7.38277 106.229 5.99664 105.294 4.62452C106.916 3.48482 108.504 2.40953 110.441 1.24182C110.485 2.02309 110.535 2.50473 110.535 2.98358C110.54 9.50256 110.584 16.0187 110.503 22.5377C110.485 23.9518 110.855 24.9655 112.236 25.7132L112.239 25.7104Z" fill="white"/>
<path d="M290.315 4.79535C291.588 3.54644 294.327 1.82149 295.445 1.57227C295.469 2.08191 295.512 2.57475 295.512 3.0648C295.518 9.63138 295.565 16.198 295.477 22.7645C295.46 24.1815 296.031 25.0215 297.214 25.7244C297.654 25.4276 298.079 25.1392 298.574 24.8059C298.784 25.0272 298.97 25.2204 299.235 25.5032C297.855 26.7325 296.517 27.9226 295.099 29.1855C293.706 28.2782 292.497 27.2814 291.498 26.094C291.215 25.758 291.233 25.1336 291.23 24.6407C291.212 19.239 291.215 13.8374 291.221 8.43288C291.221 7.16716 291.215 5.90705 290.318 4.79535H290.315Z" fill="white"/>
<path d="M246.401 12.1208C245.283 12.6724 245.07 13.4341 245.087 14.4086C245.14 17.1556 245.201 19.9111 245.067 22.6553C244.991 24.2067 245.656 25.0887 247.045 25.7076C247.465 25.4248 247.893 25.1391 248.385 24.8087C248.598 25.0327 248.779 25.226 249.035 25.5004C247.651 26.7353 246.314 27.9282 244.948 29.1491C243.441 28.3594 242.253 27.3401 241.19 26.206C240.89 25.884 240.828 25.2736 240.823 24.7919C240.793 21.3448 240.808 17.8949 240.805 14.4478C240.805 13.5601 240.753 12.6836 239.96 11.9528C239.584 12.174 239.226 12.3868 238.804 12.636C238.617 12.468 238.416 12.2888 238.102 12.0088C239.494 10.7599 240.825 9.56416 242.215 8.31805C243.543 9.04052 244.26 10.1718 244.919 11.5495C246.139 10.4434 247.249 9.43815 248.429 8.36846C249.702 9.17493 250.998 9.89739 252.813 9.06012C252.475 10.7963 251.622 11.838 250.34 12.5576C248.945 13.3417 247.634 12.8349 246.398 12.1208H246.401Z" fill="white"/>
<path d="M157.723 5.64943V9.93101H161.761C161.883 10.8355 161.563 11.1659 160.753 11.1407C159.794 11.1127 158.836 11.1351 157.799 11.1351C157.758 11.7008 157.705 12.1096 157.705 12.5156C157.7 15.8731 157.729 19.2334 157.682 22.5909C157.67 23.4366 157.947 23.9939 158.673 24.4391C159.319 24.8367 159.911 25.3156 160.546 25.7748C161.056 25.4332 161.484 25.1448 162.107 24.7275C162.282 24.9095 162.469 25.1028 162.76 25.4052C161.292 26.7241 159.966 27.917 158.571 29.1687C156.773 28.2922 155.203 27.2141 153.793 25.9428C153.481 25.6628 153.426 25.016 153.423 24.5399C153.394 20.6672 153.408 16.7972 153.408 12.9245C153.408 12.4148 153.408 11.9024 153.408 11.2415C152.357 11.1799 151.375 11.1211 150.259 11.0539C150.708 9.98701 151.716 9.64258 152.444 9.03773C153.251 8.36567 154.122 7.76922 154.97 7.14756C155.759 6.56791 156.558 5.99666 157.35 5.42261C157.472 5.49821 157.598 5.57382 157.72 5.64943H157.723Z" fill="white"/>
<path d="M419.496 25.8056C420.029 25.4192 420.411 25.142 420.871 24.8087C421.098 25.0412 421.305 25.254 421.564 25.5172C420.198 26.7437 418.893 27.917 417.48 29.1855C415.7 28.2642 414.069 27.2001 412.644 25.8756C412.367 25.618 412.359 25.0188 412.356 24.5763C412.335 20.6588 412.344 16.7412 412.344 12.8237V11.2219C411.225 11.1631 410.246 11.1127 409.183 11.0567C409.888 10.0374 415.146 6.06107 416.556 5.47021V9.90581H420.638C420.819 10.8103 420.518 11.1491 419.714 11.1379C418.756 11.1239 417.795 11.1351 416.772 11.1351C416.717 11.5832 416.647 11.894 416.644 12.2076C416.635 15.7051 416.656 19.2026 416.623 22.7001C416.618 23.4226 416.801 23.9379 417.457 24.3411C418.144 24.7667 418.773 25.282 419.496 25.8084V25.8056Z" fill="white"/>
<path d="M450.385 25.7944C450.912 25.4219 451.299 25.1503 451.937 24.6995C452.121 24.9151 452.319 25.1503 452.564 25.4387C451.09 26.7521 449.747 27.945 448.36 29.1799C446.621 28.253 445.042 27.2617 443.681 25.9988C443.367 25.7048 443.259 25.0887 443.256 24.6183C443.224 20.7063 443.239 16.7944 443.239 12.8824V11.2135C442.167 11.1631 441.185 11.1183 439.842 11.0567C441.086 9.74615 442.37 8.95928 443.553 8.07441C444.753 7.17273 445.907 6.20104 447.48 5.24615V9.92537H451.562C451.672 10.8102 451.399 11.1687 450.574 11.1435C449.619 11.1127 448.66 11.1379 447.635 11.1379C447.591 11.6419 447.53 12.0004 447.53 12.3588C447.524 15.8059 447.544 19.253 447.509 22.6973C447.504 23.417 447.675 23.935 448.331 24.3355C449.021 24.7555 449.651 25.2707 450.379 25.7972L450.385 25.7944Z" fill="white"/>
<path d="M95.2402 11.1043H91.8696C93.099 9.74336 94.407 8.98169 95.5811 8.08841C96.7755 7.17833 97.9466 6.22345 99.5139 5.24896V9.90858H103.563C103.77 10.7991 103.502 11.1575 102.666 11.1407C101.705 11.1183 100.743 11.1351 99.6974 11.1351C99.645 11.5999 99.5693 11.9528 99.5664 12.3084C99.5576 15.7527 99.5867 19.1998 99.543 22.6441C99.5314 23.4366 99.7819 23.963 100.458 24.3859C101.105 24.7891 101.705 25.2623 102.392 25.7496C102.876 25.45 103.348 25.1587 103.881 24.8283C104.082 25.0327 104.271 25.2231 104.545 25.4976C103.161 26.7353 101.83 27.9282 100.443 29.1687C98.6341 28.267 97.0377 27.2281 95.6568 25.9288C95.3451 25.6348 95.2577 25.0103 95.2519 24.5371C95.2198 20.6251 95.2344 16.716 95.2344 12.804C95.2344 12.3056 95.2344 11.8071 95.2344 11.1043H95.2402Z" fill="white"/>
<path d="M395.019 11.1295C394.973 11.6027 394.923 11.8716 394.923 12.1432C394.917 15.6883 394.932 19.2334 394.908 22.7785C394.906 23.3918 395.063 23.851 395.599 24.2095C396.348 24.7107 397.073 25.2484 397.819 25.7748C398.329 25.4304 398.757 25.1419 399.246 24.8087C399.459 25.0327 399.64 25.226 399.902 25.5004C398.527 26.7381 397.195 27.9366 395.826 29.1687C394.04 28.2838 392.49 27.2533 391.118 26.0072C390.801 25.7188 390.705 25.0915 390.702 24.6183C390.67 20.7008 390.684 16.7832 390.684 12.8629V11.2219C389.58 11.1631 388.604 11.1099 387.567 11.0539C388.167 10.0682 393.379 6.10305 394.876 5.487V9.9366H399.156C399.013 10.4266 398.923 10.7291 398.806 11.1239H395.025L395.019 11.1295Z" fill="white"/>
<path d="M460.366 8.86968C460.304 8.97329 460.29 9.02929 460.252 9.0517C458.778 9.89457 458.545 11.1687 458.591 12.72C458.696 16.3995 458.644 20.0847 458.612 23.767C458.603 24.6435 458.775 25.3267 459.8 25.688C460.182 25.4416 460.616 25.1615 461.295 24.7247C461.461 24.9123 461.662 25.1391 461.918 25.4248C460.403 26.7661 459.057 27.959 457.598 29.2527C456.573 28.3846 455.602 27.6229 454.72 26.7745C454.458 26.5224 454.353 26.024 454.35 25.6376C454.324 21.4428 454.338 17.2452 454.329 13.0505C454.329 12.566 454.385 12.1544 454.839 11.8267C456.31 10.7598 457.761 9.66775 459.212 8.57565C459.687 8.21722 460.071 8.17522 460.368 8.86968H460.366Z" fill="white"/>
<path d="M407.22 25.7076C407.633 25.4388 408.062 25.1587 408.702 24.7415C408.854 24.9235 409.023 25.1251 409.303 25.4556C407.878 26.7269 406.547 27.917 405.189 29.1295C403.91 28.5582 403.013 27.6398 402.119 26.7465C401.891 26.5197 401.818 26.0716 401.816 25.7272C401.795 21.4904 401.792 17.2536 401.818 13.0169C401.818 12.6416 401.95 12.132 402.221 11.9192C403.823 10.6506 405.486 9.45214 407.141 8.22003C407.709 8.53926 408.041 8.9397 407.415 9.28413C405.912 10.1074 405.979 11.4095 405.993 12.7872C406.034 16.4192 406.034 20.0511 405.987 23.683C405.976 24.6323 406.238 25.3015 407.22 25.716V25.7076Z" fill="white"/>
<path d="M307.261 15.1367C307.052 16.0775 306.865 16.9148 306.676 17.7605H299.154C299.34 16.856 299.512 16.0243 299.693 15.1367H307.258H307.261Z" fill="white"/>
<path d="M406.998 4.84295C405.882 5.78384 404.837 6.66592 403.642 7.6712C402.829 7.02155 401.947 6.00786 400.854 4.98297C401.973 4.01408 403.004 3.1208 404.175 2.10431C405.017 2.92198 405.979 3.85447 406.998 4.84295Z" fill="white"/>
<path d="M459.486 4.87933C458.466 5.83982 457.47 6.7779 456.392 7.79159C455.521 6.89831 454.583 5.94063 453.534 4.86813C454.574 4.00565 455.626 3.13198 456.733 2.21069C457.543 2.99476 458.51 3.93285 459.486 4.87933Z" fill="white"/>
</g>
<defs>
<clipPath id="clip0_310_3">
<rect width="498" height="36" fill="white" transform="translate(0.913086 0.68457)"/>
</clipPath>
</defs>
</svg>
