<svg width="499" height="37" viewBox="0 0 499 37" fill="none" xmlns="http://www.w3.org/2000/svg">
<g clip-path="url(#clip0_34_6504)">
<path d="M27.0648 1.35946C27.4348 2.12673 27.3998 2.46836 26.4151 3.96369C25.8791 4.78137 25.2673 5.62144 24.4924 6.20949C23.7204 6.79475 22.7357 7.20358 21.7802 7.46121C20.8188 7.71883 19.773 7.69363 18.5524 7.81124C18.532 13.6078 18.5494 19.4519 18.5436 25.408C21.7103 25.4724 24.1108 24.0667 26.3044 22.4061C26.957 22.8654 26.587 23.1874 26.4006 23.4702C23.7379 27.5026 19.9391 29.5328 14.9429 29.3928C13.1862 29.3424 11.4645 29.0455 9.86223 28.3175C6.12166 26.6177 3.78817 23.8483 3.3308 19.8523C2.80933 15.2935 4.16106 11.3676 7.99194 8.41609C8.20752 8.25088 8.46389 8.13047 8.67946 8.00165C9.30581 8.37689 8.96205 8.76052 8.8193 9.13295C8.39106 10.2531 7.96281 11.3732 7.53457 12.4933C7.63071 12.5745 7.72393 12.6585 7.82006 12.7397C10.4157 11.4964 13.0143 10.2531 15.8023 8.91734V19.8999C14.0194 20.7792 12.1433 21.7061 10.1623 22.6834C12.1433 24.7191 14.5409 25.3772 17.1598 25.5368C17.524 24.5791 17.626 9.33177 17.2764 7.48361C14.0165 7.01597 10.8207 6.01908 7.43843 6.01348C5.19234 6.01068 3.36867 6.71074 2.01111 8.4637C1.78096 8.76332 1.62948 9.28697 0.909912 9.01254C0.96235 8.78292 0.982743 8.5253 1.07597 8.29568C1.73435 6.67434 2.60832 5.1846 3.92509 3.95529C5.61185 2.38155 7.68314 1.7907 9.93506 2.00352C12.3909 2.23594 14.8147 2.73999 17.2618 3.05361C18.7971 3.25243 20.3469 3.39244 21.8909 3.42885C23.7525 3.47365 25.4421 2.97521 26.7006 1.53028C26.7793 1.44067 26.9366 1.41267 27.0619 1.35386L27.0648 1.35946ZM9.32329 21.6837C10.6653 21.3252 11.3373 20.5552 11.3392 19.3735C11.3392 17.4161 11.3451 15.4587 11.3334 13.5013C11.3334 13.1569 11.2635 12.8125 11.214 12.3476C10.643 12.5969 10.206 12.7733 9.78066 12.9749C7.14128 14.221 7.12963 14.2238 7.49378 17.0801C7.70645 18.763 8.23957 20.3339 9.32037 21.6837H9.32329Z" fill="black"/>
<path d="M72.1091 23.3442C74.5999 17.4749 77.0296 11.7456 79.4417 6.06108C79.3339 5.91827 79.2931 5.80065 79.232 5.78665C76.7907 5.31341 74.329 5.137 71.8673 5.55143C71.2177 5.66064 70.5622 5.94347 70.0058 6.2907C69.1027 6.85635 68.8405 7.76083 69.0328 8.74932C69.2163 9.6902 69.764 10.4407 70.7953 10.5639C71.6372 10.6647 72.5083 10.5415 73.3647 10.4855C73.7085 10.4631 74.0494 10.3511 74.5271 10.5163C74.3756 10.7095 74.2708 10.9839 74.0697 11.0847C72.8141 11.7148 71.4741 11.8492 70.1165 11.502C68.4647 11.0791 67.5092 9.78261 67.5587 8.02965C67.6111 6.20669 68.3919 4.69176 69.8601 3.53245C71.5352 2.20794 73.4958 1.53868 75.6371 1.54988C77.9123 1.56388 80.1933 1.68989 82.4598 1.88311C84.7787 2.08193 87.0831 2.42356 89.4166 2.06512C89.5418 2.04552 89.6846 2.13513 89.9031 2.19954C89.9031 2.55517 89.9235 2.9108 89.9002 3.26643C89.8157 4.56855 89.6438 5.86786 89.638 7.16718C89.6059 12.6697 89.638 18.1721 89.6059 23.6718C89.6001 24.5175 89.8128 25.1224 90.8178 25.4724C91.2432 25.1924 91.7471 24.8591 92.5075 24.3579C92.6939 24.5371 92.9095 24.7471 93.1979 25.0244C91.5199 26.5141 90.0691 27.805 88.5513 29.1519C87.1763 28.5415 86.0372 27.6818 84.904 26.8249C82.285 24.8451 82.2938 24.8339 82.2938 21.6109C82.2938 20.4067 82.2938 19.2026 82.2938 17.8893H75.7536C75.002 19.7039 74.2329 21.5521 73.4667 23.4058C74.5912 24.0583 75.6225 24.6519 76.6829 25.268C77.0674 25.0132 77.4607 24.7499 77.9123 24.4503C78.1308 24.6407 78.3347 24.8171 78.6843 25.1168C77.1607 26.4805 75.6953 27.791 74.1921 29.1351C73.7143 28.7767 73.3444 28.4883 72.9627 28.2138C70.3816 26.3629 67.547 26.6653 65.4816 29.0091C65.2427 29.2798 64.8475 29.4749 64.2959 29.5944C64.7358 27.7574 65.5661 26.2481 66.9207 25.0104C68.3336 23.7194 70.0524 23.1958 72.1179 23.3358L72.1091 23.3442ZM82.2151 16.5676V6.18429C81.7024 6.11708 81.2479 6.05828 80.6798 5.98267C79.2669 9.53059 77.6996 12.9385 76.3595 16.5676H82.2151ZM83.5377 23.5878C84.636 23.0894 84.9623 22.4145 84.9535 21.412C84.9098 16.856 84.936 12.3 84.9302 7.74403C84.9302 7.37999 84.8894 7.01596 84.8603 6.55392C84.4262 6.48392 84.0271 6.41671 83.5377 6.3383V23.5878Z" fill="black"/>
<path d="M325.087 25.3912C326.937 25.8112 328.775 25.5508 330.477 24.9096C332.111 24.2963 333.608 23.347 335.345 22.4565C335.31 22.7926 335.365 23.1034 335.243 23.3246C334.479 24.7023 333.401 25.828 332.128 26.7913C326.5 31.0393 317.554 30.0088 313.184 24.5847C311.229 22.1597 310.477 19.3455 310.538 16.3296C310.652 10.5415 313.344 6.17309 318.512 3.21043C318.637 3.13762 318.757 3.05641 318.891 3.00321C319.258 2.85759 319.654 2.36475 320.001 2.8828C320.111 3.05081 319.843 3.53245 319.642 3.79568C318.981 4.65815 318.194 5.43662 317.597 6.3355C314.876 10.4183 314.448 14.7587 316.158 19.3035C316.312 19.7179 316.563 20.0987 316.825 20.6084C317.833 19.4099 317.958 18.161 317.973 16.9092C318.005 14.3918 318.023 11.8716 317.964 9.35697C317.944 8.47209 318.25 7.90364 318.943 7.34079C321.052 5.62984 323.097 3.84608 325.218 2.04552C326.864 2.9472 328.519 3.70607 330.447 3.51565C332.388 3.32524 333.649 2.14913 334.73 0.684601C335.184 1.48827 334.934 2.33115 333.865 3.96929C331.814 7.11117 328.816 7.97085 325.09 7.18398V25.3912H325.087ZM323.665 25.254C323.738 25.044 323.823 24.9152 323.823 24.7863C323.834 19.0094 323.834 13.2297 323.846 7.4528C323.846 6.59593 323.348 6.36631 322.442 6.3523C322.442 8.28448 322.389 10.141 322.454 11.9948C322.555 14.9659 321.463 17.4581 319.351 19.5751C318.722 20.2079 318.075 20.824 317.382 21.5016C319.004 23.5654 321.058 24.8031 323.665 25.2512V25.254Z" fill="black"/>
<path d="M191.74 30.0592V6.2431C190.966 6.17589 190.17 6.06388 189.378 6.04988C188.51 6.03588 187.607 5.98548 186.776 6.18149C186.039 6.35791 185.387 6.84795 184.621 7.23999C184.993 4.09531 187.688 1.53868 190.301 1.8243C192.081 2.02032 193.876 2.10993 195.667 2.19114C196.911 2.24714 198.158 2.20234 199.495 2.20234C199.522 2.38155 199.592 2.59997 199.577 2.80999C199.455 4.66656 199.219 6.52312 199.204 8.37969C199.157 15.0919 199.172 21.8013 199.204 28.5135C199.207 29.3788 198.977 29.9892 198.269 30.5577C196.521 31.9606 194.84 33.4419 193.127 34.8868C192.842 35.1277 192.533 35.3405 192.256 35.5505C191.167 35.0997 190.179 34.5816 189.121 34.2876C187.971 33.9684 186.759 33.7331 185.564 33.6827C183.409 33.5903 181.573 34.3268 180.268 36.063C180.128 36.2506 180.044 36.4774 179.936 36.6874L179.598 36.5138C179.531 36.2842 179.351 36.0237 179.409 35.8305C180.551 32.0922 183.715 29.866 186.931 29.8072C188.469 29.7792 190.01 29.9612 191.738 30.0592H191.74ZM193.057 6.3159V30.7145C193.509 30.8993 193.934 31.0701 194.534 31.3165C194.534 30.6277 194.534 30.1208 194.534 29.614C194.534 23.4618 194.502 17.3097 194.558 11.1603C194.569 9.77701 194.881 8.39369 195.067 7.01317C195.108 6.72194 195.207 6.43912 195.315 6.01628C194.467 6.12829 193.806 6.2179 193.054 6.3159H193.057Z" fill="black"/>
<path d="M27.8428 26.2229C29.5324 25.296 29.3751 24.0107 29.3722 22.7478C29.3547 18.1301 29.3606 13.5125 29.3693 8.89493C29.3722 7.4472 29.4217 5.99667 28.3934 4.61335C30.0568 3.49325 31.63 2.38715 33.4274 1.32866C33.8411 2.67277 33.6139 3.82928 33.6546 4.96338C33.6954 6.17589 33.6634 7.38839 33.6634 8.6009C33.6634 9.76021 33.6634 10.9195 33.6634 12.3784C35.7988 11.0455 37.5321 9.58659 39.4578 8.31808C41.2494 9.53338 42.5545 10.9867 42.5662 13.1457C42.5895 16.968 42.5749 20.7904 42.4933 24.6127C42.4496 26.6345 41.5757 28.4127 40.2968 29.9948C38.9101 31.7114 37.1622 33.0387 35.2307 34.1448C34.6714 34.464 34.6597 34.4472 34.0741 33.9404C34.1353 33.8311 34.1732 33.6855 34.2693 33.6043C37.1243 31.1177 38.243 27.9198 38.3041 24.3299C38.3595 21.02 38.3216 17.7073 38.3216 14.3946C38.3216 13.3529 37.94 12.4904 36.9757 11.782C35.8774 12.3168 34.9132 13.0869 33.9576 13.8486C33.7508 14.0138 33.675 14.4282 33.675 14.7278C33.6546 17.8529 33.675 20.978 33.6517 24.1031C33.6488 24.6687 33.8236 25.0804 34.2985 25.4164C34.6422 25.6628 34.9335 25.9792 35.3676 26.3713C34.2315 27.3262 33.1536 28.2306 31.93 29.2583C30.6132 28.2782 29.3693 27.3514 27.8457 26.2173L27.8428 26.2229Z" fill="black"/>
<path d="M365.823 8.31528C367.926 9.6958 369.048 11.4264 368.986 13.8738C368.905 17.1837 368.992 20.4964 368.949 23.8091C368.937 24.7107 369.208 25.3296 370.14 25.7076C370.565 25.4304 370.994 25.1476 371.623 24.7359C371.786 24.918 371.964 25.1168 372.24 25.4248C370.798 26.7129 369.467 27.903 368.095 29.1267C366.778 28.5387 365.831 27.6006 364.937 26.6457C364.672 26.3601 364.701 25.7692 364.698 25.3156C364.681 21.7705 364.689 18.2254 364.686 14.6802C364.686 13.5181 364.456 12.4568 363.326 11.8044C363.198 11.8492 363.099 11.866 363.02 11.9164C361.047 13.1728 360.06 14.9556 360.06 17.2649C360.06 19.3175 360.107 21.37 360.04 23.4226C360.005 24.4363 360.203 25.2512 361.141 25.814C361.339 25.9316 361.476 26.1417 361.733 26.4021C360.617 27.3374 359.533 28.2446 358.438 29.1631C356.879 28.4323 355.705 27.4214 354.613 26.3797C354.656 26.1893 354.645 26.0633 354.703 26.0156C355.624 25.2484 355.813 24.2767 355.787 23.1398C355.72 20.2023 355.76 17.2621 355.763 14.3246C355.763 13.4705 355.664 12.6529 354.901 11.9668C354.534 12.1684 354.173 12.37 353.774 12.5885C353.666 12.5325 353.529 12.4876 353.43 12.4036C353.083 12.1096 353.208 11.8408 353.5 11.5832C354.712 10.5135 355.918 9.43818 357.153 8.34328C358.819 9.23376 359.568 10.6507 360.031 12.4484C362.03 11.0231 363.926 9.6706 365.82 8.31808L365.823 8.31528Z" fill="black"/>
<path d="M432.305 12.006C431.793 11.9948 431.108 13.0505 430.726 11.7148C431.959 10.6143 433.229 9.48018 434.545 8.30408C436.468 9.51378 437.363 11.1687 437.377 13.2633C437.403 16.758 437.406 20.2527 437.371 23.7474C437.363 24.6239 437.543 25.3044 438.548 25.6824C438.936 25.436 439.37 25.1588 440.063 24.7135C440.238 24.8843 440.456 25.0972 440.73 25.3604C439.16 26.7493 437.814 27.9394 436.372 29.2163C435.326 28.3987 434.362 27.6454 433.313 26.8249C432.646 27.371 431.944 27.8694 431.344 28.4631C430.697 29.1015 430.068 29.1519 429.275 28.7459C427.95 28.0682 426.613 27.4102 425.241 26.8221C424.341 26.4357 424.119 25.8448 424.134 24.946C424.183 21.4512 424.151 17.9565 424.154 14.4618C424.154 13.5685 424.128 12.6865 423.303 11.9668C422.904 12.188 422.502 12.412 422.124 12.6221C421.523 12.258 421.518 11.9052 421.998 11.488C423.181 10.4575 424.352 9.41018 425.593 8.31248C427.239 9.25896 428.084 10.6507 428.337 12.3868C428.451 13.1653 428.431 13.9662 428.434 14.7587C428.445 17.3685 428.492 19.9783 428.41 22.5881C428.378 23.5962 428.757 24.1479 429.675 24.5007C430.735 24.9096 431.778 25.3632 432.975 25.8588C433.031 25.2568 433.089 24.8984 433.089 24.5399C433.095 21.1376 433.092 17.7353 433.092 14.333C433.092 13.4817 433.045 12.6473 432.305 12.0032V12.006Z" fill="black"/>
<path d="M236.246 25.8784C236.651 25.59 237.038 25.3156 237.484 24.9964C237.699 25.1644 237.906 25.3296 238.256 25.604C236.869 26.8529 235.541 28.0514 234.064 29.3815C233.044 28.5919 232.042 27.819 230.964 26.9845C230.011 27.7574 229.059 28.5303 227.995 29.3927C225.947 28.4211 223.917 27.455 221.822 26.4609C221.822 25.8672 221.822 25.3604 221.822 24.8563C221.822 21.4064 221.819 17.9593 221.822 14.5094C221.822 13.6554 221.709 12.8517 221.012 12.1264C220.608 12.3392 220.243 12.5297 219.634 12.8517C219.518 12.7089 219.352 12.5073 219.087 12.1796C220.514 10.9027 221.846 9.7126 223.221 8.48329C224.759 9.35977 225.639 10.5835 225.921 12.1684C226.076 13.0365 226.111 13.9298 226.119 14.8119C226.143 17.4693 226.183 20.1267 226.099 22.7814C226.067 23.8007 226.463 24.3243 227.378 24.6743C228.438 25.0804 229.475 25.5396 230.676 26.0409C230.719 25.4108 230.775 25.0076 230.775 24.6043C230.78 21.342 230.78 18.0797 230.775 14.8175C230.775 13.885 230.751 12.9553 230.046 12.2216C229.472 12.0984 228.759 13.1989 228.377 11.88C229.601 10.7851 230.871 9.6482 232.202 8.46089C233.784 9.42978 234.67 10.7459 234.923 12.4428C235.031 13.1765 235.016 13.9298 235.019 14.6746C235.028 17.7521 235.048 20.8268 235.008 23.9043C234.996 24.7891 235.217 25.45 236.24 25.8812L236.246 25.8784Z" fill="black"/>
<path d="M140.357 26.3685C139.192 27.343 138.14 28.225 137.024 29.1603C135.527 28.4575 134.341 27.4578 133.243 26.4133C133.258 26.2481 133.228 26.1193 133.278 26.0745C134.266 25.2148 134.402 24.1283 134.373 22.9102C134.306 20.1155 134.362 17.3153 134.344 14.5178C134.338 13.6357 134.353 12.7313 133.523 11.9808C133.135 12.1796 132.73 12.3896 132.334 12.5941C131.591 12.2104 131.775 11.8324 132.261 11.4096C133.412 10.4099 134.548 9.39617 135.737 8.34888C137.409 9.17215 138.108 10.6115 138.632 12.4316C140.611 11.0231 142.487 9.6874 144.406 8.31808C146.364 9.60059 147.579 11.1995 147.57 13.5209C147.559 16.9232 147.593 20.3283 147.564 23.7306C147.559 24.5903 147.66 25.3156 148.741 25.674C149.091 25.45 149.525 25.1756 150.247 24.7135C150.396 24.8955 150.585 25.1308 150.83 25.4304C149.347 26.7465 148.001 27.9394 146.536 29.2387C145.522 28.3903 144.529 27.651 143.672 26.7857C143.363 26.4749 143.276 25.8616 143.273 25.3856C143.241 21.7957 143.241 18.2058 143.264 14.6158C143.273 13.4761 142.967 12.5128 141.898 11.6952C140.948 12.37 139.961 13.0253 139.04 13.759C138.79 13.9578 138.621 14.3862 138.618 14.7138C138.586 17.8837 138.583 21.0536 138.624 24.2235C138.63 24.5819 138.915 24.9768 139.166 25.282C139.46 25.6404 139.859 25.9232 140.351 26.3629L140.357 26.3685Z" fill="black"/>
<path d="M269.788 25.7076C270.196 25.408 270.575 25.128 271.172 24.6911C271.335 24.9096 271.496 25.1224 271.752 25.4668C270.368 26.7045 269.04 27.8946 267.647 29.1407C266.383 28.5135 265.398 27.623 264.521 26.6513C264.256 26.3573 264.274 25.7748 264.271 25.3268C264.253 21.7817 264.256 18.2394 264.262 14.6942C264.262 13.5321 264.017 12.4848 262.826 11.7344C261.926 12.3728 261.002 12.9665 260.16 13.6554C259.875 13.8878 259.65 14.3526 259.645 14.711C259.604 17.8809 259.607 21.0536 259.645 24.2235C259.65 24.5875 259.907 24.9908 260.152 25.2988C260.44 25.66 260.845 25.9344 261.34 26.3713C260.204 27.3234 259.129 28.225 258.028 29.1519C256.475 28.4547 255.307 27.4354 254.2 26.4021C254.223 26.2313 254.2 26.0997 254.252 26.0577C255.318 25.2316 255.38 24.1171 255.356 22.913C255.304 20.0707 255.336 17.2257 255.342 14.3806C255.342 13.5237 255.251 12.7033 254.59 12.0564C253.981 11.8296 253.41 13.2605 252.717 11.9304C254.013 10.7655 255.348 9.56979 256.717 8.34048C258.392 9.21136 259.132 10.6227 259.613 12.4232C261.591 11.0231 263.487 9.679 265.401 8.32368C267.385 9.60339 268.559 11.2387 268.547 13.5657C268.527 16.9708 268.568 20.3731 268.539 23.7783C268.53 24.6603 268.731 25.3324 269.8 25.7132L269.788 25.7076Z" fill="black"/>
<path d="M494.695 29.2583C493.672 28.4043 492.702 27.7042 491.895 26.8585C491.56 26.5085 491.464 25.8476 491.461 25.3268C491.426 21.7845 491.45 18.2422 491.438 14.697C491.432 13.1821 491.185 12.7117 489.961 11.7568C489.096 12.3672 488.175 12.9609 487.333 13.647C487.048 13.8794 486.818 14.3414 486.812 14.7026C486.771 17.8725 486.768 21.0424 486.818 24.2123C486.823 24.6099 487.153 25.0356 487.421 25.3856C487.671 25.716 488.041 25.9624 488.499 26.3713C487.371 27.3178 486.299 28.2194 485.198 29.1435C483.642 28.4435 482.468 27.4382 481.37 26.3993C481.393 26.2229 481.37 26.0913 481.419 26.0493C482.413 25.254 482.553 24.2235 482.524 23.0418C482.454 20.1519 482.497 17.2621 482.503 14.3722C482.503 13.5153 482.395 12.7005 481.784 12.062C481.14 11.8212 480.572 13.2717 479.89 11.9192C481.181 10.7543 482.512 9.55299 483.826 8.36848C485.393 9.18896 485.938 9.91142 486.821 12.412C488.758 11.0287 490.643 9.6818 492.554 8.31528C494.581 9.60339 495.741 11.2919 495.726 13.661C495.706 17.0633 495.744 20.4684 495.712 23.8707C495.703 24.7135 495.948 25.3184 496.883 25.6852C497.264 25.4388 497.696 25.1588 498.197 24.8311C498.38 24.9936 498.581 25.17 498.913 25.4584C497.535 26.6961 496.21 27.889 494.695 29.2527V29.2583Z" fill="black"/>
<path d="M337.448 11.7288C339.435 10.6339 341.489 9.49978 343.671 8.29848C345.914 9.31217 348.23 10.3567 350.601 11.4264V25.6992C348.789 26.7297 346.893 27.8386 344.952 28.8747C344.641 29.0427 344.084 29.0091 343.738 28.8607C341.658 27.973 339.609 27.0237 337.451 26.0521V11.7288H337.448ZM346.039 25.9148C346.173 25.7188 346.22 25.6824 346.22 25.646C346.249 21.8293 346.284 18.0153 346.281 14.1986C346.281 13.9242 346.08 13.5181 345.85 13.3977C344.588 12.7453 343.286 12.16 342.033 11.5692C341.888 11.7736 341.838 11.81 341.838 11.8464C341.803 15.6603 341.765 19.4743 341.762 23.2882C341.762 23.557 341.981 23.9519 342.217 24.0751C343.478 24.7303 344.78 25.3156 346.042 25.9148H346.039Z" fill="black"/>
<path d="M216.969 11.4264V25.6852C215.107 26.7409 213.211 27.8554 211.265 28.8775C210.927 29.0539 210.315 28.9615 209.922 28.7935C207.888 27.9282 205.887 26.9985 203.769 26.0437V11.7596C205.602 10.7263 207.507 9.6314 209.444 8.5897C209.724 8.43849 210.207 8.43289 210.504 8.5589C212.625 9.46618 214.72 10.4239 216.969 11.4292V11.4264ZM212.698 26.0661C212.698 21.8545 212.704 18.0013 212.681 14.151C212.681 13.9158 212.494 13.5881 212.287 13.4677C211.023 12.7145 209.677 12.1208 208.159 11.5384V23.9379C209.569 24.5987 210.985 25.2652 212.695 26.0689L212.698 26.0661Z" fill="black"/>
<path d="M464.188 11.726C466.16 10.6367 468.214 9.50258 470.401 8.29568C472.645 9.30657 474.961 10.3483 477.355 11.4264V25.6936C475.546 26.7157 473.641 27.8218 471.698 28.8579C471.383 29.0259 470.83 29.0091 470.486 28.8635C468.403 27.9758 466.352 27.0265 464.188 26.0521V11.7232V11.726ZM468.747 11.5636C468.589 11.8016 468.499 11.8772 468.499 11.95C468.482 15.7135 468.461 19.4799 468.476 23.2434C468.476 23.515 468.668 23.9071 468.898 24.0387C470.16 24.7639 471.476 25.3912 472.997 25.9092C473.029 25.31 473.07 24.9012 473.07 24.4923C473.076 21.2384 473.076 17.9845 473.07 14.7306C473.07 14.2294 473.184 13.6722 472.575 13.3809C471.293 12.7677 470.008 12.1628 468.744 11.5636H468.747Z" fill="black"/>
<path d="M177.926 25.7048C178.357 25.4052 178.748 25.1364 179.356 24.7135C179.514 24.9096 179.683 25.1196 179.945 25.4444C178.532 26.7073 177.204 27.8946 175.834 29.1183C174.59 28.6115 173.813 27.6174 172.665 26.8305C171.974 27.3906 171.22 27.945 170.535 28.5751C170.017 29.0539 169.469 29.2191 168.825 28.9503C167.855 28.5415 166.862 28.1578 165.953 27.637C164.814 26.9845 164.094 25.9232 163.969 24.6771C163.832 23.3442 163.951 21.9861 163.98 20.6392C163.995 20.0315 164.484 19.7879 164.971 19.5499C166.917 18.6034 168.869 17.6681 170.794 16.6824C171.363 16.3912 172.219 16.0132 172.298 15.5707C172.449 14.7026 172.26 13.731 171.989 12.8629C171.826 12.342 171.246 11.9388 170.794 11.4152C169.186 12.9497 167.47 13.9942 165.102 14.1202C165.455 12.7621 165.778 11.5244 166.081 10.3707C167.473 10.2727 168.802 10.3651 170.017 10.043C171.249 9.7182 172.365 8.98454 173.617 8.39088C175.654 9.43258 176.717 11.1211 176.72 13.4257C176.726 16.9204 176.749 20.418 176.711 23.9127C176.702 24.7695 176.973 25.3436 177.926 25.6964V25.7048ZM168.228 19.3651C168.228 20.1155 168.228 20.8548 168.228 21.5969C168.231 24.1815 169.492 25.4892 172.318 25.758V17.3349C170.876 18.0517 169.609 18.679 168.228 19.3679V19.3651Z" fill="black"/>
<path d="M129.502 25.6964C129.899 25.436 130.33 25.1504 130.944 24.7415C131.125 24.9292 131.312 25.1224 131.597 25.4192C130.126 26.7241 128.792 27.9114 127.329 29.2107C126.304 28.4267 125.334 27.6846 124.244 26.8501C123.539 27.4186 122.773 27.973 122.091 28.6087C121.564 29.1015 121.01 29.1967 120.375 28.9503C119.568 28.6367 118.747 28.3399 117.992 27.9366C115.976 26.8613 115.347 25.0552 115.376 22.9802C115.417 20.1015 115.437 20.1015 118.138 18.777C119.734 17.9957 121.302 17.1473 122.942 16.4584C123.88 16.0636 124.063 15.5035 124.052 14.6158C124.034 13.2857 123.481 12.314 122.336 11.5244C120.763 12.9385 119.07 14.025 116.705 14.1258C117.057 12.7649 117.38 11.5272 117.745 10.127C120.579 10.8971 122.904 9.83301 125.063 8.32368C127.25 9.47178 128.317 11.1547 128.317 13.4649C128.314 16.912 128.34 20.3619 128.302 23.8091C128.293 24.6939 128.503 25.3492 129.499 25.6992L129.502 25.6964ZM123.95 26.0184V17.5533C123.725 17.5645 123.565 17.5309 123.452 17.5841C122.283 18.1441 121.124 18.7154 119.857 19.3371C119.857 20.404 119.825 21.4708 119.865 22.5349C119.909 23.6466 120.518 24.4951 121.485 25.0356C122.179 25.422 122.974 25.6404 123.95 26.0213V26.0184Z" fill="black"/>
<path d="M280.358 11.3843C278.735 12.9805 277.019 13.9494 274.659 14.1566C275.009 12.7789 275.329 11.5104 275.696 10.0598C278.583 10.9755 280.87 9.76581 283.02 8.32088C285.281 9.51378 286.289 11.2639 286.263 13.6357C286.228 17.0381 286.277 20.4432 286.239 23.8455C286.231 24.6827 286.449 25.2988 287.384 25.6964C287.789 25.4472 288.261 25.1588 288.8 24.8283C289.001 25.0356 289.185 25.2316 289.444 25.5004C288.057 26.7325 286.717 27.9198 285.246 29.2275C284.223 28.4211 283.262 27.665 282.202 26.8305C281.529 27.3766 280.786 27.8946 280.157 28.5163C279.556 29.1127 278.924 29.2107 278.19 28.9027C277.307 28.5303 276.407 28.1746 275.58 27.7042C274.441 27.0545 273.666 26.0296 273.535 24.7835C273.389 23.4058 273.509 22.0001 273.541 20.6084C273.552 20.0763 273.966 19.8243 274.423 19.6031C276.416 18.6398 278.406 17.6737 280.378 16.674C280.914 16.4024 281.75 16.0748 281.82 15.6715C281.971 14.7951 281.829 13.8262 281.584 12.9525C281.435 12.4232 280.867 12.0032 280.363 11.3843H280.358ZM277.762 19.3679C277.762 20.2751 277.75 21.1096 277.762 21.9441C277.803 24.2459 279.318 25.6516 281.797 25.6964C282.059 24.0807 281.992 18.5726 281.654 17.4301C280.395 18.0573 279.163 18.6678 277.759 19.3679H277.762Z" fill="black"/>
<path d="M380.185 18.8638C379.057 19.6647 377.901 20.4852 376.727 21.3196C374.554 20.3227 373.313 18.7966 373.216 16.5172C373.167 15.3075 373.179 14.0922 373.219 12.8825C373.231 12.5437 373.342 12.1068 373.581 11.8912C374.958 10.6535 376.386 9.46898 377.703 8.34608C379.18 8.83052 380.482 9.33457 381.828 9.6846C383.319 10.071 384.499 9.21135 385.717 8.34048C385.682 9.81621 384.147 11.8408 382.708 12.482C380.983 13.2521 379.308 12.5969 377.414 12.1488C377.618 14.3302 376.805 16.5368 378.909 18.301C379.926 17.5645 380.91 16.9008 381.831 16.1644C382.428 15.6883 382.914 15.7247 383.512 16.1448C385.108 17.2677 385.935 18.7938 386.064 20.6532C386.145 21.8601 386.131 23.0782 386.075 24.2851C386.058 24.6575 385.871 25.114 385.595 25.366C384.435 26.4245 383.206 27.4102 382.023 28.4463C381.601 28.8159 381.222 28.7879 380.709 28.6003C379.675 28.2222 378.618 27.8442 377.534 27.6594C376.156 27.427 374.833 27.7042 373.717 28.6171C373.516 28.7823 373.26 28.8887 372.992 29.0427C372.753 27.595 374.233 25.5536 376.025 24.6463C377.866 23.7138 379.698 24.1703 381.519 24.6743C382.265 22.2381 381.802 20.1519 380.176 18.8582L380.185 18.8638Z" fill="black"/>
<path d="M46.4262 11.7484C48.6257 10.6283 50.8834 9.48018 53.2198 8.29288C55.0843 10.3035 56.9487 12.314 58.8889 14.4058C58.6035 14.6466 58.3442 14.9071 58.0441 15.1059C55.932 16.5116 53.8287 17.9341 51.6816 19.2867C50.9475 19.7487 50.6008 20.2639 50.6824 21.1124C50.7815 22.1233 50.4814 23.305 50.9388 24.1087C51.367 24.8591 52.5527 25.2148 53.4092 25.7384C53.5694 25.8364 53.7471 25.912 54.0384 26.0577C55.0377 25.2316 56.0544 24.3887 57.1352 23.4954C57.3828 23.7166 57.6071 23.9183 57.9188 24.1983C56.1389 25.7608 54.4172 27.2562 52.7158 28.7739C52.3255 29.1211 51.9438 29.1183 51.5272 28.8943C50.0473 28.099 48.582 27.2786 47.0904 26.5029C46.3883 26.1389 46.4262 25.5508 46.4262 24.9404C46.432 21.4905 46.4262 18.0405 46.4262 14.5906C46.4262 13.6666 46.4262 12.7397 46.4262 11.754V11.7484ZM51.064 11.9276L50.7989 12.0508V18.343C52.2352 17.3909 53.5111 16.6432 54.7434 15.6743C53.4383 14.3442 52.2497 13.1373 51.064 11.9276Z" fill="black"/>
<path d="M112.239 25.7104C112.714 25.4024 113.148 25.1224 113.625 24.8116C113.832 25.0608 113.998 25.268 114.223 25.5396C112.868 26.7437 111.557 27.9058 110.118 29.1827C108.728 28.2811 107.496 27.259 106.468 26.0409C106.211 25.7384 106.249 25.1616 106.249 24.7107C106.235 19.4043 106.229 14.095 106.249 8.78852C106.255 7.3828 106.229 5.99668 105.294 4.62455C106.916 3.48485 108.504 2.40956 110.441 1.24185C110.485 2.02312 110.534 2.50476 110.534 2.98361C110.54 9.50259 110.584 16.0188 110.502 22.5378C110.485 23.9519 110.855 24.9656 112.236 25.7132L112.239 25.7104Z" fill="black"/>
<path d="M290.315 4.79536C291.588 3.54645 294.326 1.8215 295.445 1.57228C295.468 2.08192 295.512 2.57477 295.512 3.06481C295.518 9.63139 295.565 16.198 295.477 22.7646C295.46 24.1815 296.031 25.0216 297.213 25.7244C297.653 25.4276 298.079 25.1392 298.574 24.8059C298.784 25.0272 298.97 25.2204 299.235 25.5032C297.854 26.7325 296.517 27.9226 295.098 29.1855C293.706 28.2782 292.497 27.2814 291.498 26.0941C291.215 25.758 291.233 25.1336 291.23 24.6407C291.212 19.239 291.215 13.8374 291.221 8.43289C291.221 7.16717 291.215 5.90706 290.318 4.79536H290.315Z" fill="black"/>
<path d="M246.401 12.1208C245.282 12.6725 245.07 13.4341 245.087 14.4086C245.14 17.1557 245.201 19.9111 245.067 22.6554C244.991 24.2067 245.655 25.0888 247.045 25.7076C247.464 25.4248 247.893 25.1392 248.385 24.8087C248.598 25.0328 248.778 25.226 249.035 25.5004C247.651 26.7353 246.314 27.9282 244.947 29.1491C243.441 28.3595 242.253 27.3402 241.189 26.2061C240.889 25.884 240.828 25.2736 240.822 24.7919C240.793 21.3448 240.808 17.8949 240.805 14.4478C240.805 13.5601 240.752 12.6837 239.96 11.9528C239.584 12.174 239.226 12.3868 238.803 12.6361C238.617 12.468 238.416 12.2888 238.101 12.0088C239.494 10.7599 240.825 9.56419 242.215 8.31808C243.543 9.04054 244.26 10.1718 244.918 11.5496C246.139 10.4435 247.249 9.43818 248.429 8.36848C249.702 9.17495 250.998 9.89742 252.813 9.06014C252.475 10.7963 251.622 11.838 250.34 12.5577C248.944 13.3417 247.633 12.8349 246.398 12.1208H246.401Z" fill="black"/>
<path d="M157.723 5.64944V9.93102H161.761C161.883 10.8355 161.562 11.1659 160.753 11.1407C159.794 11.1127 158.836 11.1351 157.799 11.1351C157.758 11.7008 157.705 12.1096 157.705 12.5157C157.7 15.8732 157.729 19.2335 157.682 22.591C157.67 23.4366 157.947 23.9939 158.673 24.4391C159.319 24.8368 159.911 25.3156 160.546 25.7748C161.056 25.4332 161.484 25.1448 162.107 24.7275C162.282 24.9096 162.468 25.1028 162.76 25.4052C161.292 26.7241 159.966 27.917 158.571 29.1687C156.773 28.2923 155.203 27.2142 153.793 25.9428C153.481 25.6628 153.426 25.016 153.423 24.5399C153.394 20.6672 153.408 16.7972 153.408 12.9245C153.408 12.4148 153.408 11.9024 153.408 11.2415C152.357 11.1799 151.375 11.1211 150.259 11.0539C150.708 9.98703 151.716 9.6426 152.444 9.03774C153.251 8.36568 154.122 7.76923 154.97 7.14758C155.759 6.56792 156.558 5.99667 157.35 5.42262C157.472 5.49823 157.598 5.57384 157.72 5.64944H157.723Z" fill="black"/>
<path d="M419.496 25.8056C420.029 25.4192 420.411 25.142 420.871 24.8087C421.098 25.0412 421.305 25.254 421.564 25.5172C420.198 26.7437 418.893 27.917 417.48 29.1855C415.7 28.2643 414.068 27.2002 412.644 25.8756C412.367 25.618 412.358 25.0188 412.355 24.5763C412.335 20.6588 412.344 16.7412 412.344 12.8237V11.2219C411.225 11.1631 410.246 11.1127 409.183 11.0567C409.888 10.0374 415.146 6.06108 416.556 5.47023V9.90582H420.638C420.818 10.8103 420.518 11.1491 419.714 11.1379C418.756 11.1239 417.794 11.1351 416.772 11.1351C416.717 11.5832 416.647 11.894 416.644 12.2076C416.635 15.7051 416.655 19.2027 416.623 22.7002C416.618 23.4226 416.801 23.9379 417.457 24.3411C418.144 24.7667 418.773 25.282 419.496 25.8084V25.8056Z" fill="black"/>
<path d="M450.385 25.7944C450.912 25.422 451.299 25.1504 451.937 24.6995C452.121 24.9152 452.319 25.1504 452.564 25.4388C451.09 26.7521 449.747 27.945 448.36 29.1799C446.621 28.2531 445.042 27.2618 443.681 25.9989C443.367 25.7048 443.259 25.0888 443.256 24.6183C443.224 20.7064 443.239 16.7944 443.239 12.8825V11.2135C442.166 11.1631 441.185 11.1183 439.842 11.0567C441.086 9.74621 442.37 8.95934 443.553 8.07446C444.753 7.17278 445.907 6.20109 447.48 5.24621V9.92542H451.562C451.672 10.8103 451.398 11.1687 450.574 11.1435C449.618 11.1127 448.66 11.1379 447.635 11.1379C447.591 11.642 447.53 12.0004 447.53 12.3588C447.524 15.8059 447.544 19.2531 447.509 22.6974C447.503 23.417 447.675 23.9351 448.331 24.3355C449.021 24.7555 449.651 25.2708 450.379 25.7972L450.385 25.7944Z" fill="black"/>
<path d="M95.2401 11.1043H91.8695C93.0989 9.74341 94.4069 8.98174 95.5809 8.08846C96.7754 7.17838 97.9465 6.22349 99.5138 5.24901V9.90862H103.563C103.77 10.7991 103.502 11.1575 102.666 11.1407C101.705 11.1183 100.743 11.1351 99.6973 11.1351C99.6449 11.6 99.5691 11.9528 99.5662 12.3084C99.5575 15.7527 99.5866 19.1998 99.5429 22.6442C99.5313 23.4366 99.7818 23.9631 100.458 24.3859C101.104 24.7891 101.705 25.2624 102.392 25.7496C102.876 25.45 103.348 25.1588 103.881 24.8283C104.082 25.0328 104.271 25.2232 104.545 25.4976C103.161 26.7353 101.83 27.9282 100.443 29.1687C98.634 28.2671 97.0376 27.2282 95.6567 25.9288C95.345 25.6348 95.2576 25.0104 95.2517 24.5371C95.2197 20.6252 95.2343 16.716 95.2343 12.8041C95.2343 12.3056 95.2343 11.8072 95.2343 11.1043H95.2401Z" fill="black"/>
<path d="M395.019 11.1295C394.972 11.6028 394.923 11.8716 394.923 12.1432C394.917 15.6883 394.931 19.2335 394.908 22.7786C394.905 23.3918 395.063 23.8511 395.599 24.2095C396.347 24.7107 397.073 25.2484 397.819 25.7748C398.328 25.4304 398.757 25.142 399.246 24.8087C399.459 25.0328 399.639 25.226 399.901 25.5004C398.526 26.7381 397.195 27.9366 395.826 29.1687C394.04 28.2839 392.49 27.2534 391.118 26.0073C390.801 25.7188 390.704 25.0916 390.702 24.6183C390.669 20.7008 390.684 16.7832 390.684 12.8629V11.2219C389.58 11.1631 388.604 11.1099 387.567 11.0539C388.167 10.0682 393.379 6.10308 394.876 5.48703V9.93663H399.156C399.013 10.4267 398.923 10.7291 398.806 11.1239H395.025L395.019 11.1295Z" fill="black"/>
<path d="M460.365 8.86973C460.304 8.97334 460.29 9.02935 460.252 9.05175C458.778 9.89462 458.545 11.1687 458.591 12.7201C458.696 16.3996 458.644 20.0847 458.612 23.7671C458.603 24.6435 458.775 25.3268 459.8 25.688C460.182 25.4416 460.616 25.1616 461.295 24.7247C461.461 24.9124 461.662 25.1392 461.918 25.4248C460.403 26.7661 459.057 27.959 457.598 29.2527C456.572 28.3847 455.602 27.623 454.719 26.7745C454.457 26.5225 454.352 26.0241 454.349 25.6376C454.323 21.4429 454.338 17.2453 454.329 13.0505C454.329 12.5661 454.384 12.1544 454.839 11.8268C456.31 10.7599 457.761 9.6678 459.212 8.57571C459.687 8.21728 460.071 8.17527 460.368 8.86973H460.365Z" fill="black"/>
<path d="M407.219 25.7076C407.633 25.4388 408.061 25.1588 408.702 24.7415C408.854 24.9236 409.023 25.1252 409.302 25.4556C407.878 26.7269 406.546 27.917 405.189 29.1295C403.91 28.5583 403.013 27.6398 402.118 26.7465C401.891 26.5197 401.818 26.0717 401.815 25.7272C401.795 21.4904 401.792 17.2537 401.818 13.0169C401.818 12.6417 401.949 12.132 402.22 11.9192C403.823 10.6507 405.486 9.45218 407.141 8.22007C407.709 8.5393 408.041 8.93973 407.415 9.28416C405.911 10.1074 405.978 11.4096 405.993 12.7873C406.034 16.4192 406.034 20.0511 405.987 23.683C405.975 24.6323 406.238 25.3016 407.219 25.716V25.7076Z" fill="black"/>
<path d="M307.261 15.1367C307.051 16.0776 306.865 16.9148 306.676 17.7605H299.154C299.34 16.856 299.512 16.0244 299.693 15.1367H307.258H307.261Z" fill="black"/>
<path d="M406.998 4.84297C405.882 5.78386 404.836 6.66593 403.642 7.67122C402.829 7.02157 401.947 6.00788 400.854 4.98298C401.973 4.0141 403.004 3.12082 404.175 2.10433C405.017 2.922 405.978 3.85448 406.998 4.84297Z" fill="black"/>
<path d="M459.485 4.87937C458.466 5.83986 457.47 6.77794 456.392 7.79163C455.521 6.89835 454.583 5.94067 453.534 4.86817C454.574 4.00569 455.625 3.13202 456.733 2.21074C457.542 2.99481 458.51 3.93289 459.485 4.87937Z" fill="black"/>
</g>
<defs>
<clipPath id="clip0_34_6504">
<rect width="498" height="36" fill="white" transform="translate(0.913025 0.684601)"/>
</clipPath>
</defs>
</svg>
